<svg width="65.000000" height="65.000000" viewBox="0 0 65 65" fill="none" xmlns="http://www.w3.org/2000/svg" xmlns:xlink="http://www.w3.org/1999/xlink">
	<desc>
			Created with Pixso.
	</desc>
	<defs/>
	<path id="call" d="M54.63 42.54C50.85 40.31 48.73 44.11 46.02 45.69C39.98 49.19 34.58 44.51 27.03 36.96C19.49 29.4 14.83 24.04 18.27 18.03C18.94 16.88 19.77 15.83 20.72 14.91C24.35 11.28 19.98 6.9 17.09 4C10.81 -2.52 7.55 -2.93 2.57 4.77C-5.08 16.3 -0.47 30.23 16.65 47.34C28.43 59.13 38.72 64.99 47.74 64.99C50.74 64.92 53.68 64.24 56.41 63.01C59.14 61.77 61.59 60 63.62 57.8C67.25 54.17 62.87 49.8 59.98 46.9C58.43 45.18 56.62 43.71 54.63 42.54ZM7.61 1.79C9.28 0.11 11.24 0.99 15.67 5.42C21.15 11.02 21.03 11.95 17.93 15.01C16.46 12.42 14.56 10.1 12.31 8.15C10.58 6.11 8.29 4.63 5.72 3.87C6.3 3.15 6.93 2.46 7.61 1.79ZM18.06 45.93C1.83 29.69 -2.75 16.65 4.1 6.08C4.41 5.93 4.75 5.85 5.09 5.83C5.44 5.82 5.78 5.88 6.1 6.01C8.54 7.32 10.72 9.08 12.51 11.18C14.26 12.68 15.59 14.6 16.38 16.76C12.49 24.86 18.56 31.53 25.61 38.37C32.22 44.98 39.06 51.81 46.78 47.55C50.15 48.05 52.41 51.28 54.77 53.46C56.24 55.23 58.88 57.38 57.89 59.89C47.33 66.73 34.3 62.16 18.06 45.93ZM62.2 56.38C61.55 57.04 60.86 57.67 60.14 58.27C59 55.04 56.97 52.21 54.28 50.1C52.76 48.46 50.98 47.09 49.01 46.04C52.05 42.95 53 42.84 58.58 48.32C62.99 52.75 63.88 54.71 62.2 56.38ZM32.09 25.32L36.68 25.32C36.57 32.84 45.91 38.44 54.04 36.63L59.13 39.4C59.27 39.47 59.43 39.51 59.6 39.52C59.76 39.52 59.92 39.48 60.07 39.4C60.21 39.32 60.34 39.21 60.43 39.08C60.52 38.94 60.58 38.79 60.6 38.63L61.19 33.22C68.22 27.25 64.81 16.89 56.14 14.3L56.14 9.4C56.14 7.94 55.56 6.53 54.52 5.49C53.48 4.45 52.07 3.87 50.6 3.87L40.69 3.87L34.35 -0.81C34.2 -0.92 34.03 -0.99 33.84 -1C33.66 -1.02 33.47 -0.98 33.31 -0.9C33.14 -0.81 33 -0.69 32.91 -0.53C32.81 -0.37 32.76 -0.19 32.76 -0.01L32.76 3.87C31.98 3.78 31.19 3.87 30.45 4.11C29.7 4.35 29.01 4.74 28.43 5.26C27.85 5.78 27.38 6.42 27.05 7.14C26.73 7.85 26.56 8.62 26.55 9.4L26.55 19.78C26.55 21.25 27.14 22.66 28.17 23.7C29.21 24.74 30.62 25.32 32.09 25.32ZM56.13 19.78L56.13 16.42C63.13 18.89 65.52 27.22 59.59 31.95C59 32.17 58.94 36.29 58.77 36.93C58.3 36.77 54.46 34.31 53.99 34.6C47.06 36.35 38.57 31.71 38.67 25.32L50.58 25.32C52.05 25.32 53.46 24.74 54.5 23.7C55.54 22.66 56.13 21.25 56.13 19.78ZM28.54 9.4C28.54 8.47 28.92 7.57 29.58 6.9C30.24 6.24 31.14 5.87 32.08 5.87L33.76 5.87C35.29 5.87 34.62 3.49 34.76 1.98L39.77 5.67C39.94 5.79 40.15 5.86 40.36 5.86L50.58 5.86C51.52 5.86 52.42 6.24 53.08 6.9C53.74 7.56 54.12 8.46 54.12 9.4L54.12 19.78C54.12 20.72 53.74 21.62 53.08 22.28C52.42 22.95 51.52 23.32 50.58 23.32L32.09 23.32C31.15 23.32 30.25 22.95 29.59 22.28C28.92 21.62 28.55 20.72 28.55 19.78L28.54 9.4Z" fill="#024731" fill-opacity="1.000000" fill-rule="nonzero"/>
</svg>
