<svg width="66" height="66" viewBox="0 0 66 66" fill="none" xmlns="http://www.w3.org/2000/svg">
<g clip-path="url(#clip0_1_1302)">
<mask id="mask0_1_1302" style="mask-type:luminance" maskUnits="userSpaceOnUse" x="0" y="0" width="66" height="66">
<path d="M65 65V1.00001H1V65H65Z" fill="white" stroke="white" stroke-width="2"/>
</mask>
<g mask="url(#mask0_1_1302)">
<path d="M8.05362 39.1363L1.00451 19.5409C0.883467 19.1994 1.06329 18.8213 1.40476 18.6966C5.13479 17.3567 9.02647 16.0461 12.9549 14.7247M50.3404 53.0234L27.8202 61.1178L17.9369 64.6712C17.5955 64.7961 17.2173 64.6162 17.0925 64.2748L9.53681 43.2587" stroke="#024731" stroke-width="2" stroke-miterlimit="10" stroke-linecap="round" stroke-linejoin="round"/>
<path d="M54.7938 52.2598L31.4072 56.2685L21.0539 58.0453C20.6978 58.1039 20.3527 57.8617 20.2902 57.5055L16.4684 35.2048L12.2573 10.6535C12.1949 10.2939 12.4372 9.9524 12.7933 9.89001L24.5931 7.86735" stroke="#024731" stroke-width="2" stroke-miterlimit="10" stroke-linecap="round" stroke-linejoin="round"/>
<path d="M24.5931 27.9656V1.97544C24.5931 1.59735 24.9016 1.28901 25.2796 1.28901H55.9759H56.4899C56.6991 1.28901 56.7579 1.37344 57.1141 1.71118L64.644 8.89152C64.9487 9.1889 65.0332 9.2219 65.0332 9.42016V9.84594V40.4799V51.5697C65.0332 51.9477 64.7248 52.2598 64.3467 52.2598H36.2387H25.2796C24.9016 52.2598 24.5931 51.9477 24.5931 51.5697V32.4514" stroke="#024731" stroke-width="2" stroke-miterlimit="10" stroke-linecap="round" stroke-linejoin="round"/>
<path d="M55.976 1.28903L55.9906 8.09863C55.9906 9.62204 57.3858 9.52652 58.0575 9.52652H65.0332" stroke="#024731" stroke-width="2" stroke-miterlimit="10" stroke-linecap="round" stroke-linejoin="round"/>
<path d="M58.8286 15.334H31.1868" stroke="#024731" stroke-width="2" stroke-miterlimit="10" stroke-linecap="round" stroke-linejoin="round"/>
<path d="M58.8286 22.2023H31.1868" stroke="#024731" stroke-width="2" stroke-miterlimit="10" stroke-linecap="round" stroke-linejoin="round"/>
<path d="M58.8286 29.0706H31.1868" stroke="#024731" stroke-width="2" stroke-miterlimit="10" stroke-linecap="round" stroke-linejoin="round"/>
<path d="M58.8286 35.9389H31.1868" stroke="#024731" stroke-width="2" stroke-miterlimit="10" stroke-linecap="round" stroke-linejoin="round"/>
<path d="M58.8286 42.8073H31.1868" stroke="#024731" stroke-width="2" stroke-miterlimit="10" stroke-linecap="round" stroke-linejoin="round"/>
</g>
</g>
<defs>
<clipPath id="clip0_1_1302">
<rect width="66" height="66" fill="white"/>
</clipPath>
</defs>
</svg>
