<svg width="66.000000" height="66.000000" viewBox="0 0 66 66" fill="none" xmlns="http://www.w3.org/2000/svg" xmlns:xlink="http://www.w3.org/1999/xlink">
	<desc>
			Created with Pixso.
	</desc>
	<defs>
		<clipPath id="clip1_1361">
			<rect id="icon.svg - 2024-03-21T000126.240 1" width="66.000000" height="66.000000" fill="white" fill-opacity="0"/>
		</clipPath>
	</defs>
	<rect id="icon.svg - 2024-03-21T000126.240 1" width="66.000000" height="66.000000" fill="#FFFFFF" fill-opacity="0"/>
	<g clip-path="url(#clip1_1361)">
		<path id="Vector" d="M61.37 29.82L59.67 22.98C60.13 22.88 60.48 22.47 60.48 21.97L60.48 20.87C60.48 18.48 58.54 16.53 56.14 16.53L48.36 16.53L48.36 14.26C48.36 13.08 47.4 12.12 46.22 12.12L6.54 12.12C5.36 12.12 4.4 13.08 4.4 14.26L4.4 33C4.4 33.57 4.87 34.03 5.44 34.03C6.01 34.03 6.47 33.57 6.47 33L6.47 14.26C6.47 14.22 6.5 14.19 6.54 14.19L46.22 14.19C46.26 14.19 46.29 14.22 46.29 14.26L46.29 33C46.29 33.57 46.75 34.03 47.32 34.03C47.9 34.03 48.36 33.57 48.36 33L48.36 31.82L60.55 31.82C60.55 31.82 60.55 31.82 60.55 31.82C60.55 31.82 60.55 31.82 60.55 31.82C62.05 31.83 63.33 32.81 63.77 34.17L60.55 34.17C59.98 34.17 59.52 34.63 59.52 35.2L59.52 37.4C59.52 39.19 60.97 40.64 62.76 40.64L63.93 40.64L63.93 45.19L61.23 45.19C60.34 42.63 57.9 40.78 55.04 40.78C52.18 40.78 49.74 42.63 48.86 45.19L48.36 45.19L48.36 37.4C48.36 36.83 47.9 36.37 47.32 36.37C46.75 36.37 46.29 36.83 46.29 37.4L46.29 45.19L24.85 45.19C23.96 42.63 21.53 40.78 18.67 40.78C15.8 40.78 13.37 42.63 12.48 45.19L6.54 45.19C6.5 45.19 6.47 45.16 6.47 45.12L6.47 42.85L10.95 42.85C11.52 42.85 11.98 42.38 11.98 41.81C11.98 41.24 11.52 40.78 10.95 40.78L1.03 40.78C0.46 40.78 0 41.24 0 41.81C0 42.38 0.46 42.85 1.03 42.85L4.4 42.85L4.4 45.12C4.4 46.3 5.36 47.26 6.54 47.26L12.12 47.26C12.12 47.28 12.12 47.3 12.12 47.32C12.12 50.93 15.06 53.87 18.67 53.87C22.27 53.87 25.21 50.93 25.21 47.32C25.21 47.3 25.21 47.28 25.21 47.26L48.5 47.26C48.5 47.28 48.5 47.3 48.5 47.32C48.5 50.93 51.43 53.87 55.04 53.87C58.65 53.87 61.59 50.93 61.59 47.32C61.59 47.3 61.58 47.28 61.58 47.26L64.96 47.26C65.53 47.26 65.99 46.79 65.99 46.22L65.99 35.2C66 32.48 63.99 30.22 61.37 29.82ZM48.36 18.6L56.14 18.6C57.4 18.6 58.42 19.62 58.42 20.87L58.42 20.94L48.36 20.94L48.36 18.6ZM48.36 29.76L48.36 23.01L57.54 23.01L59.23 29.76L48.36 29.76ZM18.67 51.8C16.2 51.8 14.19 49.79 14.19 47.33C14.19 44.86 16.2 42.85 18.67 42.85C21.13 42.85 23.14 44.86 23.14 47.33C23.14 49.79 21.13 51.8 18.67 51.8ZM55.04 51.8C52.57 51.8 50.56 49.79 50.56 47.33C50.56 44.86 52.57 42.85 55.04 42.85C57.51 42.85 59.52 44.86 59.52 47.33C59.52 49.79 57.51 51.8 55.04 51.8ZM63.93 38.58L62.76 38.58C62.11 38.58 61.59 38.05 61.59 37.4L61.59 36.23L63.93 36.23L63.93 38.58L63.93 38.58Z" fill="#024731" fill-opacity="1.000000" fill-rule="nonzero"/>
		<path id="Vector" d="M18.67 45.19C17.49 45.19 16.53 46.15 16.53 47.32C16.53 48.5 17.49 49.46 18.67 49.46C19.84 49.46 20.8 48.5 20.8 47.32C20.8 46.15 19.84 45.19 18.67 45.19Z" fill="#024731" fill-opacity="1.000000" fill-rule="nonzero"/>
		<path id="Vector" d="M55.04 45.19C53.86 45.19 52.91 46.15 52.91 47.32C52.91 48.5 53.86 49.46 55.04 49.46C56.22 49.46 57.18 48.5 57.18 47.32C57.18 46.15 56.22 45.19 55.04 45.19Z" fill="#024731" fill-opacity="1.000000" fill-rule="nonzero"/>
		<path id="Vector" d="M42.92 40.78L27.48 40.78C26.91 40.78 26.45 41.24 26.45 41.81C26.45 42.38 26.91 42.85 27.48 42.85L42.92 42.85C43.49 42.85 43.95 42.38 43.95 41.81C43.95 41.24 43.49 40.78 42.92 40.78Z" fill="#024731" fill-opacity="1.000000" fill-rule="nonzero"/>
		<path id="Vector" d="M16.46 36.37L3.23 36.37C2.66 36.37 2.2 36.83 2.2 37.4C2.2 37.98 2.66 38.44 3.23 38.44L16.46 38.44C17.03 38.44 17.49 37.98 17.49 37.4C17.49 36.83 17.03 36.37 16.46 36.37Z" fill="#024731" fill-opacity="1.000000" fill-rule="nonzero"/>
		<path id="Vector" d="M35.93 22.34C35.53 21.94 34.87 21.94 34.47 22.34L25.28 31.53L20.5 26.75C20.09 26.35 19.44 26.35 19.04 26.75C18.63 27.16 18.63 27.81 19.04 28.21L24.55 33.73C24.75 33.93 25.01 34.03 25.28 34.03C25.54 34.03 25.81 33.93 26.01 33.73L35.93 23.81C36.33 23.4 36.33 22.75 35.93 22.34Z" fill="#024731" fill-opacity="1.000000" fill-rule="nonzero"/>
	</g>
</svg>
