<svg width="66.000000" height="66.000000" viewBox="0 0 66 66" fill="none" xmlns="http://www.w3.org/2000/svg" xmlns:xlink="http://www.w3.org/1999/xlink">
	<desc>
			Created with Pixso.
	</desc>
	<defs>
		<clipPath id="clip1_1391">
			<rect id="icon.svg - 2024-03-21T000241.739 1" width="66.000000" height="66.000000" fill="white" fill-opacity="0"/>
		</clipPath>
	</defs>
	<rect id="icon.svg - 2024-03-21T000241.739 1" width="66.000000" height="66.000000" fill="#FFFFFF" fill-opacity="0"/>
	<g clip-path="url(#clip1_1391)">
		<path id="Vector" d="M55 47.55L52.19 45.88C51.34 45.37 50.36 45.1 49.37 45.1L45.15 45.1C44.29 45.09 43.43 45.2 42.59 45.42L29.89 48.83C28.5 49.22 27.39 50.25 26.9 51.61L15.72 45.56C14.82 45.05 13.76 44.87 12.73 45.07C12.35 45.14 11.97 45.26 11.62 45.44C10.83 45.82 10.17 46.43 9.73 47.2C9.35 47.86 9.15 48.62 9.15 49.38C9.14 50.95 9.97 52.4 11.32 53.19L31.35 65.17C32.22 65.71 33.22 66 34.25 66L49.75 66C50.44 66 51.12 65.86 51.77 65.61L55 64.34L55 66L66 66L66 44L55 44L55 47.55ZM50.96 63.56C50.57 63.72 50.16 63.79 49.75 63.8L34.25 63.8C33.63 63.79 33.02 63.62 32.49 63.29L12.44 51.29C11.76 50.9 11.34 50.17 11.35 49.38C11.35 49 11.45 48.62 11.64 48.28C11.86 47.91 12.19 47.6 12.59 47.41C12.76 47.33 12.95 47.27 13.14 47.23C13.28 47.21 13.42 47.2 13.56 47.2C13.94 47.19 14.31 47.29 14.64 47.48L26.75 54.03C26.77 54.1 26.77 54.16 26.78 54.23C27.31 56.15 29.05 57.48 31.04 57.48C31.65 57.43 32.26 57.32 32.85 57.16L44.28 54.1L43.71 51.98L32.32 55.02C31.82 55.14 31.17 55.27 31.04 55.28C30.04 55.28 29.17 54.62 28.91 53.66C28.88 53.53 28.85 53.39 28.85 53.25C28.85 53.25 28.84 52.99 28.85 52.89C28.93 51.97 29.58 51.2 30.47 50.95L43.16 47.56C43.81 47.38 44.48 47.3 45.15 47.3L49.37 47.3C49.96 47.3 50.55 47.46 51.06 47.76L55 50.12L55 61.97L50.96 63.56ZM57.2 46.2L63.8 46.2L63.8 63.8L57.2 63.8L57.2 46.2Z" fill="#024731" fill-opacity="1.000000" fill-rule="nonzero"/>
		<path id="Vector" d="M45.36 8.8L39.46 2.89C37.61 1.03 35.09 -0.01 32.46 6.1e-5L18.63 6.1e-5C17.78 0 16.94 0.2 16.17 0.58L13.71 1.81C13.21 2.06 12.67 2.18 12.11 2.15L11 2.11L11 6.1e-5L0 6.1e-5L0 24.2L11 24.2L11 20.9L12.87 20.9L13.53 21.33C15.39 22.57 17.56 23.27 19.79 23.35L19.79 37.4L66 37.4L66 8.8L45.36 8.8ZM8.8 22L2.2 22L2.2 2.2L8.8 2.2L8.8 22ZM14.75 19.5L13.52 18.7L11 18.7L11 4.32L12.03 4.35C12.95 4.39 13.87 4.19 14.69 3.78L17.16 2.54C17.61 2.31 18.12 2.2 18.63 2.2L32.46 2.2C34.51 2.19 36.47 3 37.91 4.45L42.25 8.8L33.18 8.8L30.51 6.13L28.95 7.68L36.72 15.45C37.58 16.31 37.59 17.71 36.73 18.57C35.87 19.43 34.47 19.44 33.61 18.58L27.12 12.09L26.35 12.75C24.22 14.55 21.11 14.6 18.93 12.86L18.3 12.34L16.91 14.05L17.55 14.57C18.23 15.11 18.99 15.54 19.79 15.83L19.79 21.15C17.99 21.07 16.25 20.5 14.75 19.5ZM30.4 18.47L32.06 20.14C33.78 21.83 36.54 21.84 38.27 20.14C36.66 22.64 37.29 25.97 39.72 27.69C42.14 29.42 45.49 28.94 47.33 26.59C49.16 24.25 48.83 20.88 46.58 18.94C44.32 17 40.94 17.18 38.9 19.34C39.65 18.16 39.78 16.69 39.26 15.4L53.99 15.4C54.46 18.16 56.63 20.33 59.4 20.8L59.4 25.39C56.63 25.86 54.46 28.03 53.99 30.8L31.8 30.8C31.33 28.03 29.16 25.86 26.4 25.39L26.4 20.8C27.97 20.54 29.39 19.71 30.4 18.47ZM39.59 23.1C39.59 21.27 41.07 19.79 42.9 19.79C44.72 19.79 46.2 21.27 46.2 23.1C46.2 24.92 44.72 26.4 42.9 26.4C41.07 26.4 39.59 24.92 39.59 23.1ZM63.8 35.2L22 35.2L22 16.3C23.74 16.43 25.48 15.98 26.95 15.03L28.82 16.91C28 18.03 26.69 18.69 25.3 18.7L24.2 18.7L24.2 27.5L25.3 27.5C27.72 27.5 29.7 29.47 29.7 31.9L29.7 33L56.1 33L56.1 31.9C56.1 29.47 58.07 27.5 60.5 27.5L61.6 27.5L61.6 18.7L60.5 18.7C58.07 18.7 56.1 16.72 56.1 14.3L56.1 13.2L37.58 13.2L35.38 11L63.8 11L63.8 35.2Z" fill="#024731" fill-opacity="1.000000" fill-rule="nonzero"/>
	</g>
</svg>
