<svg width="121.000000" height="121.000000" viewBox="0 0 121 121" fill="none" xmlns="http://www.w3.org/2000/svg" xmlns:xlink="http://www.w3.org/1999/xlink">
	<desc>
			Created with Pixso.
	</desc>
	<defs>
		<clipPath id="clip1_933">
			<rect id="icon.svg - 2024-03-20T233403.352 1" width="121.000000" height="121.000000" transform="translate(-0.500000 0.000000)" fill="white" fill-opacity="0"/>
		</clipPath>
	</defs>
	<rect id="icon.svg - 2024-03-20T233403.352 1" width="121.000000" height="121.000000" transform="translate(-0.500000 0.000000)" fill="#FFFFFF" fill-opacity="0"/>
	<g clip-path="url(#clip1_933)">
		<path id="Vector" d="M22.13 81.46L22.11 81.46C21.13 81.46 20.34 82.25 20.34 83.23C20.34 84.21 21.15 85 22.13 85C23.1 85 23.9 84.21 23.9 83.23C23.9 82.25 23.1 81.46 22.13 81.46Z" fill="#93CE20" fill-opacity="1.000000" fill-rule="nonzero"/>
		<path id="Vector" d="M37.28 81.46L37.26 81.46C36.28 81.46 35.5 82.25 35.5 83.23C35.5 84.21 36.3 85 37.28 85C38.26 85 39.05 84.21 39.05 83.23C39.05 82.25 38.26 81.46 37.28 81.46Z" fill="#93CE20" fill-opacity="1.000000" fill-rule="nonzero"/>
		<path id="Vector" d="M99.8 81.46L99.78 81.46C98.8 81.46 98.02 82.25 98.02 83.23C98.02 84.21 98.82 85 99.8 85C100.78 85 101.57 84.21 101.57 83.23C101.57 82.25 100.78 81.46 99.8 81.46Z" fill="#93CE20" fill-opacity="1.000000" fill-rule="nonzero"/>
		<path id="Vector" d="M118.87 60.03L116.48 57.64L111.68 43.24C112.4 43.01 112.92 42.34 112.92 41.55C112.92 40.57 112.12 39.78 111.15 39.78L93.97 39.78L93.97 32.08C93.97 30.06 92.33 28.41 90.31 28.41L3.16 28.41C1.14 28.41 -0.5 30.06 -0.5 32.08L-0.5 73.76C-0.5 75.78 1.14 77.42 3.16 77.42L5.18 77.42L5.18 81.33C5.18 83.36 6.82 85 8.85 85L12.93 85C13.76 89.31 17.56 92.58 22.11 92.58C25.22 92.58 27.98 91.05 29.68 88.7C31.38 91.05 34.15 92.58 37.26 92.58C41.81 92.58 45.61 89.31 46.44 85L90.6 85C91.43 89.31 95.23 92.58 99.78 92.58C104.93 92.58 109.13 88.38 109.13 83.23C109.13 83.19 109.13 83.15 109.13 83.11L116.83 83.11C118.85 83.11 120.5 81.46 120.5 79.44L120.5 63.96C120.5 62.47 119.92 61.08 118.87 60.03ZM12.93 81.46L8.85 81.46C8.78 81.46 8.72 81.4 8.72 81.33L8.72 77.42L14.78 77.42C13.87 78.58 13.22 79.95 12.93 81.46ZM22.11 89.03C18.91 89.03 16.3 86.43 16.3 83.23C16.3 80.04 18.89 77.44 22.07 77.42L22.14 77.42C25.33 77.44 27.91 80.04 27.91 83.23C27.91 86.43 25.31 89.03 22.11 89.03ZM37.26 89.03C34.06 89.03 31.46 86.43 31.46 83.23C31.46 80.04 34.04 77.44 37.23 77.42L37.3 77.42C40.48 77.44 43.07 80.04 43.07 83.23C43.07 86.43 40.46 89.03 37.26 89.03ZM90.6 81.46L46.44 81.46C46.15 79.95 45.5 78.58 44.58 77.42L78.94 77.42C79.92 77.42 80.71 76.63 80.71 75.65C80.71 74.67 79.92 73.88 78.94 73.88L3.16 73.88C3.09 73.88 3.04 73.82 3.04 73.76L3.04 32.08C3.04 32.01 3.09 31.96 3.16 31.96L90.31 31.96C90.37 31.96 90.43 32.01 90.43 32.08L90.43 73.88L86.52 73.88C85.54 73.88 84.75 74.67 84.75 75.65C84.75 76.63 85.54 77.42 86.52 77.42L92.46 77.42C91.54 78.58 90.89 79.95 90.6 81.46ZM113.11 58.72L101.67 58.72C101.61 58.72 101.55 58.67 101.55 58.6L101.55 50.9L110.5 50.9L113.11 58.72ZM99.78 89.03C96.58 89.03 93.97 86.43 93.97 83.23C93.97 80.04 96.56 77.44 99.74 77.42L99.78 77.42C99.78 77.42 99.79 77.42 99.79 77.42C102.99 77.43 105.58 80.03 105.58 83.23C105.58 86.43 102.98 89.03 99.78 89.03ZM116.95 79.44C116.95 79.51 116.9 79.56 116.83 79.56L108.38 79.56C106.95 76.22 103.63 73.88 99.78 73.88C99.77 73.88 99.75 73.88 99.74 73.88L93.97 73.88L93.97 43.45L93.97 43.45C93.97 43.38 94.03 43.32 94.1 43.32L107.97 43.32L109.32 47.36L99.78 47.36C98.8 47.36 98.01 48.15 98.01 49.13L98.01 58.6C98.01 60.62 99.65 62.27 101.67 62.27L116.09 62.27L116.36 62.53C116.74 62.91 116.95 63.42 116.95 63.96L116.95 68.2L114.93 68.2C113.96 68.2 113.16 68.99 113.16 69.97C113.16 70.95 113.96 71.74 114.93 71.74L116.95 71.74L116.95 79.44Z" fill="#93CE20" fill-opacity="1.000000" fill-rule="nonzero"/>
		<path id="Vector" d="M84.62 66.3L8.85 66.3C7.87 66.3 7.07 67.09 7.07 68.07C7.07 69.05 7.87 69.85 8.85 69.85L84.62 69.85C85.6 69.85 86.4 69.05 86.4 68.07C86.4 67.09 85.6 66.3 84.62 66.3Z" fill="#93CE20" fill-opacity="1.000000" fill-rule="nonzero"/>
	</g>
</svg>
