<svg width="121.000000" height="121.000000" viewBox="0 0 121 121" fill="none" xmlns="http://www.w3.org/2000/svg" xmlns:xlink="http://www.w3.org/1999/xlink">
	<desc>
			Created with Pixso.
	</desc>
	<defs>
		<clipPath id="clip1_736">
			<rect id="icon.svg - 2024-03-20T232423.628 1" width="121.000000" height="121.000000" transform="translate(-0.500000 0.000000)" fill="white" fill-opacity="0"/>
		</clipPath>
	</defs>
	<rect id="icon.svg - 2024-03-20T232423.628 1" width="121.000000" height="121.000000" transform="translate(-0.500000 0.000000)" fill="#FFFFFF" fill-opacity="0"/>
	<g clip-path="url(#clip1_736)">
		<path id="Vector" d="M114.19 60.07C112.14 58.5 109.88 57.31 107.49 56.52C109.56 56.03 111.7 55.64 113.66 55.36C116.07 55.01 117.6 52.58 116.84 50.26C114.27 42.32 113.56 38.8 109.71 34.39L100.66 24C99.43 22.58 97.36 22.27 95.76 23.25L92.93 24.99C91.32 25.98 90.66 28.03 91.41 29.77C92.14 31.48 93.17 34.64 92.4 37.6L91.89 36.06C91.55 35.01 90.86 34.1 89.94 33.49L83.96 29.49C81.7 27.99 78.63 28.6 77.12 30.86C75.61 33.13 76.22 36.18 78.49 37.7L82.13 40.13C82.01 40.11 81.9 40.1 81.78 40.09C73.77 34.83 68.78 33.94 65.66 33.17C58.05 31.29 50.85 29.52 41.62 41.58C38.9 41.15 31.18 39.67 26.04 36.15C23.61 34.49 20.51 34.54 18.22 36.11L14.72 32.86C11.84 30.19 9.04 30.59 5.09 30.59C2.08 30.59 0.44 34.09 2.35 36.41L10.06 45.75C11.89 47.96 14.78 49.13 17.7 48.74L28.65 57.77C30.71 59.48 33.29 60.28 35.87 60.11L41.86 59.73L43.41 62.02L36.22 65.44C32.35 60.45 26.4 57.51 20.02 57.51C8.7 57.5 -0.5 66.71 -0.5 78.03C-0.5 89.34 8.7 98.55 20.02 98.55C30.4 98.55 39.04 90.83 40.36 80.71L40.43 80.7L47.59 90.98C48.14 91.77 49.05 92.25 50.01 92.25L61.98 92.25C62.96 92.25 63.75 91.45 63.75 90.47C63.75 89.49 62.96 88.7 61.98 88.7L50.32 88.7L43.52 78.94L52.99 78.94C57.65 84.52 66.69 81.93 67.79 74.84C71.82 77.13 76.69 78.55 81.38 78.4C80.57 81.69 79.9 85.34 79.48 88.7L70.25 88.7C69.27 88.7 68.48 89.49 68.48 90.47C68.48 91.45 69.27 92.25 70.25 92.25L80 92.25C81.5 92.25 82.76 91.13 82.93 89.64C82.94 89.59 82.95 89.53 82.95 89.48C84.24 91.39 85.84 93.09 87.69 94.47C101.15 104.53 120.5 94.91 120.5 78.03C120.5 72.7 118.45 67.66 114.82 63.86C115.64 62.61 115.34 60.97 114.19 60.07ZM56.61 61.44L58.8 56.85C59.74 54.87 61.33 53.24 63.27 52.25C64.72 51.51 79.83 43.76 81.15 43.64C82.14 43.54 83.16 44.05 83.97 44.63C81.73 45.61 68.44 51.69 65.55 54.02C63.15 55.96 61.41 58.53 60.47 61.37C59.18 61.18 57.83 61.22 56.61 61.44ZM41.73 53.22C44.22 52.72 43.37 52.89 47.72 52.01L53.91 58.86C53.14 60.49 52.37 62.09 51.61 63.69C51 64.17 50.36 64.79 49.92 65.31C47.64 61.94 44.36 57.11 41.73 53.22ZM87.89 46.8C95.25 43.72 97.66 37.63 95.41 30.39L100.19 37.45C101.37 39.2 103.25 40.31 105.35 40.52L109.87 40.96C110.67 42.56 110.93 43.51 111.78 46.16C107.86 46.52 105.05 48.49 105.05 51.02C105.05 51.84 105.33 52.6 105.84 53.26C100.46 54.6 94.38 56.83 90.25 60.5C87.24 56.76 82.27 53.51 76.46 52.06C80.08 50.27 84.24 48.32 87.89 46.8ZM97.99 26.33C108.35 38.21 106.9 36.54 107.41 37.16C105.69 36.99 104.21 37.06 103.13 35.46L97.11 26.58L97.61 26.27C97.73 26.2 97.89 26.22 97.99 26.33ZM113.16 51.85C112.49 51.94 111.76 52.06 110.98 52.19C109.43 51.85 108.73 51.26 108.6 51.02C108.81 50.62 110.31 49.69 112.91 49.64L113.47 51.35C113.54 51.58 113.4 51.81 113.16 51.85ZM95.64 67.93C95.05 66.11 95.43 67.28 93.78 62.2C94.5 61.66 95.31 61.15 96.19 60.65C97.36 64.24 100.71 74.52 101.71 77.6C101.95 78.32 101.55 79.11 100.82 79.34C100.09 79.58 99.31 79.18 99.08 78.46L95.64 67.93ZM101.43 65.3L99.41 59.1L99.77 58.94C103.55 58.81 107.46 59.8 110.89 62.07L101.43 65.3ZM86.23 39.06C86.1 38.68 85.86 38.35 85.53 38.13L80.45 34.75C79.82 34.32 79.65 33.46 80.07 32.83C80.49 32.19 81.36 32.02 81.99 32.44L87.97 36.43C88.23 36.61 88.43 36.86 88.52 37.16L89.93 41.48C89.23 42.09 88.44 42.6 87.6 43.03C87.56 42.99 87.53 42.96 87.49 42.92L86.23 39.06ZM64.81 36.61C67.87 37.36 70.82 37.77 77.14 41.41C73.08 43.3 65.65 47.06 61.66 49.09C59.02 50.44 56.87 52.65 55.6 55.32L55.56 55.4L44.7 43.38C52.36 33.54 57.63 34.84 64.81 36.61ZM24.04 39.07C30.15 43.26 39.01 44.79 41.53 45.15C42.74 46.5 41.91 45.58 44.96 48.95L38.42 50.27C36.82 50.59 35.18 50.18 33.92 49.15L21.1 38.61C22.06 38.32 23.14 38.46 24.04 39.07ZM12.8 43.49L5.08 34.16C5.08 34.15 5.08 34.14 5.08 34.14L5.09 34.14C9.01 34.14 10.57 33.84 12.3 35.45C18.4 41.13 15.64 38.71 21.79 43.76C19.21 44.64 19.94 44.39 17.7 45.15C15.9 45.57 13.98 44.92 12.8 43.49ZM30.9 55.04L21.78 47.51C23 47.1 22.26 47.35 25.02 46.42L31.67 51.89C33.39 53.3 35.61 54.05 37.91 53.91C39.07 55.62 38.72 55.1 39.55 56.33C35.71 56.57 33.41 57.1 30.9 55.04ZM17.62 74.33C16.27 74.97 15.4 76.35 15.4 77.84C15.4 80.05 17.26 81.83 19.48 81.72L28.96 81.26C27.63 84.95 24.1 87.54 20.02 87.54C14.77 87.54 10.5 83.27 10.5 78.03C10.5 70.21 19.51 65.7 25.76 70.44L17.62 74.33ZM36.76 80.88C35.4 88.94 28.39 95 20.02 95C10.66 95 3.04 87.39 3.04 78.03C3.04 68.67 10.66 61.05 20.02 61.05C25.03 61.05 29.73 63.25 32.94 67.01L29.24 68.78C21.09 60.64 6.96 66.38 6.96 78.03C6.96 85.23 12.82 91.08 20.02 91.08C26.11 91.08 31.33 86.88 32.71 81.08C34.35 81 33.47 81.04 36.76 80.88ZM42.39 75.39C41.17 75.39 40.12 76.13 39.67 77.19L19.31 78.18C19.11 78.19 18.95 78.03 18.95 77.84C18.95 77.7 19.03 77.58 19.15 77.53C19.76 77.23 44.6 65.37 45.42 64.98C46.71 66.89 46.38 66.4 47.91 68.66C47.06 70.83 46.91 73.23 47.39 75.39L42.39 75.39ZM51.07 75.39C49.24 69.86 53.77 64.12 59.74 64.86C59.69 65.31 59.66 65.9 59.66 66.38C59.66 67.53 60.34 68.59 61.4 69.06C61.41 69.07 61.41 69.07 61.42 69.07C63.47 69.97 64.67 72.2 64.27 74.42C63.57 78.27 58.58 80.06 55.53 76.45C54.97 75.78 54.15 75.39 53.28 75.39L51.07 75.39ZM67.22 70.26C66.41 68.37 64.91 66.83 63.21 66C63.29 63.44 64.17 60.94 65.71 58.91C67.52 56.52 69.48 55.61 70.95 54.84C77.25 54.99 84.26 58.36 87.82 63.14C85.31 66.45 83.57 70.82 82.37 74.79C77.19 75.31 71.34 73.31 67.22 70.26ZM99.97 95C92.64 95 86.23 90.4 83.89 83.49C85.03 77.58 87.19 69.58 90.93 64.91L91.87 67.79C82.22 75.4 87.61 91.08 99.97 91.08C105.06 91.08 109.72 88.09 111.85 83.46C112.25 82.57 111.86 81.52 110.97 81.11C110.08 80.7 109.03 81.09 108.62 81.98C107.08 85.36 103.68 87.54 99.97 87.54C94.73 87.54 90.46 83.27 90.46 78.03C90.46 75.55 91.41 73.22 93.07 71.48L95.71 79.56C96.56 82.16 99.34 83.56 101.92 82.71C104.52 81.87 105.93 79.09 105.08 76.5L102.6 68.89C105.59 69.75 108 72.03 109 75.01C109.31 75.94 110.31 76.44 111.24 76.13C112.17 75.82 112.67 74.82 112.36 73.89C111.41 71.06 109.54 68.69 107.13 67.1L111.54 65.6C122.73 76.01 115.41 95 99.97 95Z" fill="#93CE20" fill-opacity="1.000000" fill-rule="nonzero"/>
	</g>
</svg>
