<svg width="122" height="121" viewBox="0 0 122 121" fill="none" xmlns="http://www.w3.org/2000/svg">
<g clip-path="url(#clip0_1_1070)">
<mask id="mask0_1_1070" style="mask-type:luminance" maskUnits="userSpaceOnUse" x="0" y="0" width="122" height="121">
<path d="M120 119.5V1.50001H2V119.5H120Z" fill="white" stroke="white" stroke-width="3"/>
</mask>
<g mask="url(#mask0_1_1070)">
<path d="M8.66277 90.9897H5.03136C3.50775 90.9897 2.27246 89.7545 2.27246 88.2309V81.015C2.27246 79.4914 3.50775 78.2564 5.03136 78.2564H84.3941" stroke="#93CE20" stroke-width="3" stroke-miterlimit="10" stroke-linecap="round" stroke-linejoin="round"/>
<path d="M44.541 69.0636H18.022L13.3632 78.2575H49.1998L44.541 69.0636Z" stroke="#93CE20" stroke-width="3" stroke-miterlimit="10" stroke-linecap="round" stroke-linejoin="round"/>
<path d="M59.1806 35.9933V78.2575" stroke="#93CE20" stroke-width="3" stroke-miterlimit="10" stroke-linecap="round" stroke-linejoin="round"/>
<path d="M117.778 83.8242V59.8842L94.0098 56.1119L91.4951 35.9933" stroke="#93CE20" stroke-width="3" stroke-miterlimit="10" stroke-linecap="round" stroke-linejoin="round"/>
<path d="M81.8141 35.9933H101.304C100.763 32.2924 97.5885 29.5489 93.8481 29.5489H79.7791L79.3567 28.2115C78.574 25.7329 76.2748 24.0478 73.6754 24.0478H59.1807V29.5489V35.9933H69.2398" stroke="#93CE20" stroke-width="3" stroke-miterlimit="10" stroke-linecap="round" stroke-linejoin="round"/>
<path d="M95.2511 72.5551C96.1633 72.418 97.0968 72.3471 98.0469 72.3471C105.808 72.3471 112.482 77.0855 115.33 83.8232" stroke="#93CE20" stroke-width="3" stroke-miterlimit="10" stroke-linecap="round" stroke-linejoin="round"/>
<path d="M79.2918 90.9886C79.332 84.1493 83.0518 78.1678 88.5677 74.9231" stroke="#93CE20" stroke-width="3" stroke-miterlimit="10" stroke-linecap="round" stroke-linejoin="round"/>
<path d="M46.4023 37.2052V21.0498L52.2183 17.0464V37.2028" stroke="#93CE20" stroke-width="3" stroke-miterlimit="10" stroke-linecap="round" stroke-linejoin="round"/>
<path d="M44.1687 49.6431V60.8545C44.1687 62.5678 45.5583 63.9575 47.274 63.9575H51.3483C53.0641 63.9575 54.4537 62.5678 54.4537 60.8545V40.1852C54.4537 38.4718 53.0641 37.0799 51.3483 37.0799H47.274C45.5583 37.0799 44.1687 38.4718 44.1687 40.1852V42.5579" stroke="#93CE20" stroke-width="3" stroke-miterlimit="10" stroke-linecap="round" stroke-linejoin="round"/>
<path d="M108.634 83.8242H111.567H117.778C118.855 83.8242 119.728 84.6963 119.728 85.7716V94.7638C119.728 95.8391 118.855 96.7112 117.778 96.7112H109.61" stroke="#93CE20" stroke-width="3" stroke-miterlimit="10" stroke-linecap="round" stroke-linejoin="round"/>
<path d="M34.3582 91.1055C34.3582 84.0098 28.6059 78.2575 21.5102 78.2575C14.4144 78.2575 8.6622 84.0098 8.6622 91.1055C8.6622 98.2013 14.4144 103.953 21.5102 103.953C28.6059 103.953 34.3582 98.2013 34.3582 91.1055Z" stroke="#93CE20" stroke-width="3" stroke-miterlimit="10" stroke-linecap="round" stroke-linejoin="round"/>
<path d="M27.5718 91.1055C27.5718 87.7577 24.858 85.044 21.5102 85.044C18.1624 85.044 15.4486 87.7577 15.4486 91.1055C15.4486 94.4534 18.1624 97.1671 21.5102 97.1671C24.858 97.1671 27.5718 94.4534 27.5718 91.1055Z" stroke="#93CE20" stroke-width="3" stroke-miterlimit="10" stroke-linecap="round" stroke-linejoin="round"/>
<path d="M60.0542 91.1055C60.0542 84.0098 54.302 78.2575 47.2062 78.2575C40.1105 78.2575 34.3582 84.0098 34.3582 91.1055C34.3582 98.2013 40.1105 103.953 47.2062 103.953C54.302 103.953 60.0542 98.2013 60.0542 91.1055Z" stroke="#93CE20" stroke-width="3" stroke-miterlimit="10" stroke-linecap="round" stroke-linejoin="round"/>
<path d="M53.2679 91.1055C53.2679 87.7577 50.5541 85.044 47.2063 85.044C43.8585 85.044 41.1447 87.7577 41.1447 91.1055C41.1447 94.4534 43.8585 97.1671 47.2063 97.1671C50.5541 97.1671 53.2679 94.4534 53.2679 91.1055Z" stroke="#93CE20" stroke-width="3" stroke-miterlimit="10" stroke-linecap="round" stroke-linejoin="round"/>
<path d="M110.895 91.1055C110.895 84.0098 105.143 78.2575 98.0468 78.2575C90.951 78.2575 85.1988 84.0098 85.1988 91.1055C85.1988 98.2013 90.951 103.953 98.0468 103.953C105.143 103.953 110.895 98.2013 110.895 91.1055Z" stroke="#93CE20" stroke-width="3" stroke-miterlimit="10" stroke-linecap="round" stroke-linejoin="round"/>
<path d="M104.108 91.1055C104.108 87.7577 101.395 85.044 98.0467 85.044C94.6991 85.044 91.9851 87.7577 91.9851 91.1055C91.9851 94.4534 94.6991 97.1671 98.0467 97.1671C101.395 97.1671 104.108 94.4534 104.108 91.1055Z" stroke="#93CE20" stroke-width="3" stroke-miterlimit="10" stroke-linecap="round" stroke-linejoin="round"/>
<path d="M111.21 58.8419V77.4064" stroke="#93CE20" stroke-width="3" stroke-miterlimit="10" stroke-linecap="round" stroke-linejoin="round"/>
<path d="M65.9391 55.5619H87.1616L85.7436 41.416H65.9391V55.5619Z" stroke="#93CE20" stroke-width="3" stroke-miterlimit="10" stroke-linecap="round" stroke-linejoin="round"/>
<path d="M71.5976 41.4159V55.5618" stroke="#93CE20" stroke-width="3" stroke-miterlimit="10" stroke-linecap="round" stroke-linejoin="round"/>
<path d="M105.81 62.0017C102.654 62.0017 100.097 64.5595 100.097 67.7149C100.097 70.8704 102.654 73.4284 105.81 73.4284V62.0017Z" stroke="#93CE20" stroke-width="3" stroke-miterlimit="10" stroke-linecap="round" stroke-linejoin="round"/>
<path d="M60.0542 90.9897H85.1986" stroke="#93CE20" stroke-width="3" stroke-miterlimit="10" stroke-linecap="round" stroke-linejoin="round"/>
<path d="M54.4537 44.3237H59.1805" stroke="#93CE20" stroke-width="3" stroke-miterlimit="10" stroke-linecap="round" stroke-linejoin="round"/>
<path d="M54.4537 57.2123H59.1805" stroke="#93CE20" stroke-width="3" stroke-miterlimit="10" stroke-linecap="round" stroke-linejoin="round"/>
<path d="M65.9391 61.2145V65.9299" stroke="#93CE20" stroke-width="3" stroke-miterlimit="10" stroke-linecap="round" stroke-linejoin="round"/>
</g>
</g>
<defs>
<clipPath id="clip0_1_1070">
<rect width="121" height="121" fill="white" transform="translate(0.5)"/>
</clipPath>
</defs>
</svg>
