<svg width="121.000000" height="121.000000" viewBox="0 0 121 121" fill="none" xmlns="http://www.w3.org/2000/svg" xmlns:xlink="http://www.w3.org/1999/xlink">
	<desc>
			Created with Pixso.
	</desc>
	<defs>
		<clipPath id="clip1_875">
			<rect id="icon.svg - 2024-03-20T233223.461 1" width="121.000000" height="121.000000" transform="translate(-0.500000 0.000000)" fill="white" fill-opacity="0"/>
		</clipPath>
	</defs>
	<rect id="icon.svg - 2024-03-20T233223.461 1" width="121.000000" height="121.000000" transform="translate(-0.500000 0.000000)" fill="#FFFFFF" fill-opacity="0"/>
	<g clip-path="url(#clip1_875)">
		<path id="XMLID_3139_" d="M98.11 82.47C91.12 82.47 85.42 76.78 85.42 69.78C85.42 62.79 91.12 57.09 98.11 57.09C105.11 57.09 110.81 62.79 110.81 69.78C110.81 76.78 105.11 82.47 98.11 82.47ZM98.11 59.43C92.42 59.43 87.79 64.06 87.79 69.76C87.79 75.45 92.42 80.09 98.11 80.09C103.81 80.09 108.44 75.45 108.44 69.76C108.44 64.06 103.81 59.43 98.11 59.43Z" fill="#93CE20" fill-opacity="1.000000" fill-rule="nonzero"/>
		<path id="XMLID_3136_" d="M21.5 82.47C14.5 82.47 8.81 76.78 8.81 69.78C8.81 62.79 14.5 57.09 21.5 57.09C28.49 57.09 34.19 62.79 34.19 69.78C34.19 76.78 28.49 82.47 21.5 82.47ZM21.5 59.43C15.8 59.43 11.17 64.06 11.17 69.76C11.17 75.45 15.8 80.11 21.5 80.11C27.19 80.11 31.82 75.48 31.82 69.78C31.82 64.09 27.19 59.43 21.5 59.43Z" fill="#93CE20" fill-opacity="1.000000" fill-rule="nonzero"/>
		<path id="XMLID_3133_" d="M21.5 76.61C17.74 76.61 14.67 73.54 14.67 69.78C14.67 66.03 17.74 62.95 21.5 62.95C25.25 62.95 28.33 66.03 28.33 69.78C28.33 73.54 25.25 76.61 21.5 76.61ZM21.5 65.29C19.04 65.29 17.03 67.3 17.03 69.76C17.03 72.22 19.04 74.23 21.5 74.23C23.95 74.23 25.96 72.22 25.96 69.76C25.96 67.3 23.95 65.29 21.5 65.29Z" fill="#93CE20" fill-opacity="1.000000" fill-rule="nonzero"/>
		<path id="XMLID_3130_" d="M98.07 76.61C94.31 76.61 91.24 73.54 91.24 69.78C91.24 66.03 94.31 62.95 98.07 62.95C101.83 62.95 104.9 66.03 104.9 69.78C104.9 73.54 101.83 76.61 98.07 76.61ZM98.07 65.29C95.61 65.29 93.6 67.3 93.6 69.76C93.6 72.22 95.61 74.23 98.07 74.23C100.53 74.23 102.53 72.22 102.53 69.76C102.53 67.3 100.53 65.29 98.07 65.29Z" fill="#93CE20" fill-opacity="1.000000" fill-rule="nonzero"/>
		<path id="XMLID_3129_" d="M116.48 76.57L108.14 76.57L108.14 74.2L115.3 74.2L115.3 69.76C115.3 69.59 115.32 69.43 115.39 69.29L117.85 63.69L113.15 60.16C107.95 56.26 101.52 54.11 95.02 54.11L85.05 54.11C84.81 54.11 84.57 54.04 84.38 53.9L73.91 46.79C68.2 42.91 61.53 40.86 54.63 40.86L29.91 40.86L1.86 49.43L1.86 50.57L3.28 50.57C3.94 50.57 4.46 51.09 4.46 51.75L4.46 61.91C4.46 62.57 3.94 63.09 3.28 63.09L1.86 63.09L1.86 69.55L5.4 74.2L11.45 74.2L11.45 76.57L4.81 76.57C4.43 76.57 4.1 76.4 3.87 76.09L-0.27 70.66C-0.43 70.44 -0.5 70.21 -0.5 69.95L-0.5 61.91C-0.5 61.25 0.01 60.73 0.68 60.73L2.09 60.73L2.09 52.93L0.68 52.93C0.01 52.93 -0.5 52.41 -0.5 51.75L-0.5 48.56C-0.5 48.04 -0.17 47.59 0.32 47.43L29.39 38.56C29.51 38.54 29.63 38.52 29.75 38.52L54.63 38.52C62 38.52 69.14 40.71 75.24 44.85L85.4 51.75L95.02 51.75C102.01 51.75 108.96 54.07 114.56 58.27L120.02 62.36C120.47 62.69 120.61 63.28 120.4 63.78L117.66 70.02L117.66 75.38C117.66 76.05 117.14 76.57 116.48 76.57Z" fill="#93CE20" fill-opacity="1.000000" fill-rule="nonzero"/>
		<path id="XMLID_3128_" d="M71.15 74.2L88.07 74.2L88.07 76.57L71.15 76.57L71.15 74.2Z" fill="#93CE20" fill-opacity="1.000000" fill-rule="nonzero"/>
		<path id="XMLID_3127_" d="M31.52 74.2L66.42 74.2L66.42 76.57L31.52 76.57L31.52 74.2Z" fill="#93CE20" fill-opacity="1.000000" fill-rule="nonzero"/>
		<path id="XMLID_3124_" d="M8.4 63.09L3.28 63.09C2.61 63.09 2.09 62.57 2.09 61.91L2.09 51.75C2.09 51.09 2.61 50.57 3.28 50.57L8.43 50.57C8.9 50.57 9.33 50.85 9.52 51.28L12 57.07C12.14 57.4 12.11 57.8 11.95 58.11L9.47 62.48C9.23 62.86 8.83 63.09 8.4 63.09ZM4.46 60.73L7.72 60.73L9.56 57.47L7.65 52.93L4.46 52.93L4.46 60.73Z" fill="#93CE20" fill-opacity="1.000000" fill-rule="nonzero"/>
		<path id="XMLID_3123_" d="M77.72 53.64L60 53.64C59.92 53.64 59.88 53.64 59.81 53.62L36.05 49.95L36.41 47.62L60.09 51.28L74.03 51.28L73.06 50.59C67.2 46.41 60.3 44.19 53.09 44.19L32.04 44.19L25.85 46.01L31.71 46.91L31.35 49.25L20.24 47.54C19.7 47.45 19.28 47 19.25 46.46C19.2 45.91 19.56 45.39 20.1 45.25L31.56 41.9C31.68 41.87 31.78 41.85 31.9 41.85L53.12 41.85C60.82 41.85 68.2 44.21 74.46 48.68L78.43 51.51C78.85 51.82 79.02 52.34 78.88 52.84C78.69 53.31 78.24 53.64 77.72 53.64Z" fill="#93CE20" fill-opacity="1.000000" fill-rule="nonzero"/>
		<path id="XMLID_3120_" d="M45.63 51.44C45.56 51.44 45.51 51.44 45.44 51.42L40.62 50.69C40.05 50.59 39.62 50.1 39.62 49.53L39.62 43.01C39.62 42.35 40.14 41.83 40.81 41.83L45.63 41.83C46.29 41.83 46.81 42.35 46.81 43.01L46.81 50.24C46.81 50.59 46.67 50.9 46.41 51.14C46.19 51.33 45.91 51.44 45.63 51.44ZM41.99 48.49L44.44 48.87L44.44 44.19L41.99 44.19L41.99 48.49Z" fill="#93CE20" fill-opacity="1.000000" fill-rule="nonzero"/>
		<path id="XMLID_3119_" d="M83.68 70.94L45.25 68.65C44.92 68.62 44.61 68.46 44.4 68.2L37.09 58.98C36.86 58.7 36.79 58.32 36.88 57.97C36.98 57.61 37.21 57.33 37.54 57.16L45.18 53.74C45.39 53.64 45.6 53.62 45.84 53.64L83.27 59.31L82.92 61.65L45.82 56.05L39.91 58.7L45.93 66.31L83.84 68.58L83.68 70.94Z" fill="#93CE20" fill-opacity="1.000000" fill-rule="nonzero"/>
		<path id="XMLID_3118_" d="M111.99 62.15L119.31 62.15L119.31 64.51L111.99 64.51L111.99 62.15Z" fill="#93CE20" fill-opacity="1.000000" fill-rule="nonzero"/>
	</g>
</svg>
