<svg width="121.000000" height="121.000000" viewBox="0 0 121 121" fill="none" xmlns="http://www.w3.org/2000/svg" xmlns:xlink="http://www.w3.org/1999/xlink">
	<desc>
			Created with Pixso.
	</desc>
	<defs>
		<clipPath id="clip1_982">
			<rect id="icon.svg - 2024-03-20T233448.799 1" width="121.000000" height="121.000000" transform="translate(-0.500000 0.000000)" fill="white" fill-opacity="0"/>
		</clipPath>
	</defs>
	<rect id="icon.svg - 2024-03-20T233448.799 1" width="121.000000" height="121.000000" transform="translate(-0.500000 0.000000)" fill="#FFFFFF" fill-opacity="0"/>
	<g clip-path="url(#clip1_982)">
		<mask id="mask1_986" mask-type="alpha" maskUnits="userSpaceOnUse" x="-0.500000" y="0.000000" width="121.000000" height="121.000000">
			<path id="path1794" d="M-0.5 0L120.5 0L120.5 121L-0.5 121L-0.5 0Z" fill="#000000" fill-opacity="1.000000" fill-rule="nonzero"/>
			<path id="path1794" d="M120.5 0L-0.5 0L-0.5 121L120.5 121L120.5 0ZM117.5 118L2.5 118L2.5 3L117.5 3L117.5 118Z" fill="#93CE20" fill-opacity="1.000000" fill-rule="evenodd"/>
		</mask>
		<g mask="url(#mask1_986)">
			<path id="path1800" d="M90.05 91.92C83.69 91.92 78.53 86.76 78.53 80.4C78.53 74.04 83.69 68.88 90.05 68.88C96.41 68.88 101.56 74.04 101.56 80.4C101.56 86.76 96.41 91.92 90.05 91.92Z" stroke="#93CE20" stroke-opacity="1.000000" stroke-width="3.000000" stroke-linejoin="round"/>
			<path id="path1804" d="M90.05 86.16C86.87 86.16 84.29 83.58 84.29 80.4C84.29 77.22 86.87 74.64 90.05 74.64C93.23 74.64 95.8 77.22 95.8 80.4C95.8 83.58 93.23 86.16 90.05 86.16Z" stroke="#93CE20" stroke-opacity="1.000000" stroke-width="3.000000" stroke-linejoin="round"/>
			<path id="path1808" d="M23.4 91.92C17.04 91.92 11.88 86.76 11.88 80.4C11.88 74.04 17.04 68.88 23.4 68.88C29.76 68.88 34.92 74.04 34.92 80.4C34.92 86.76 29.76 91.92 23.4 91.92Z" stroke="#93CE20" stroke-opacity="1.000000" stroke-width="3.000000" stroke-linejoin="round"/>
			<path id="path1812" d="M23.4 86.16C20.22 86.16 17.64 83.58 17.64 80.4C17.64 77.22 20.22 74.64 23.4 74.64C26.58 74.64 29.16 77.22 29.16 80.4C29.16 83.58 26.58 86.16 23.4 86.16Z" stroke="#93CE20" stroke-opacity="1.000000" stroke-width="3.000000" stroke-linejoin="round"/>
			<path id="path1816" d="M112.63 53.1L107.04 34.05C105.91 31.06 103.05 29.07 99.85 29.07L4.05 29.07C2.52 29.07 1.27 30.33 1.27 31.86L1.27 56.29L88.27 56.29C89.42 56.29 90.54 56.68 91.43 57.4L100.18 64.43C101.07 65.15 102.19 65.54 103.34 65.54L114.85 65.54L114.85 65.37C114.85 61.18 114.1 57.02 112.63 53.1Z" stroke="#93CE20" stroke-opacity="1.000000" stroke-width="3.000000" stroke-linejoin="round"/>
			<path id="path1820" d="M112.63 53.1L107.04 34.05C105.91 31.06 103.05 29.07 99.85 29.07L4.05 29.07C2.52 29.07 1.27 30.33 1.27 31.86L1.27 56.29L88.27 56.29C89.42 56.29 90.54 56.68 91.43 57.4L100.18 64.43C101.07 65.15 102.19 65.54 103.34 65.54L114.85 65.54L114.85 65.37C114.85 61.18 114.1 57.02 112.63 53.1Z" stroke="#93CE20" stroke-opacity="1.000000" stroke-width="3.000000" stroke-linejoin="round"/>
			<path id="path1824" d="M107.04 34.05C105.91 31.06 103.05 29.07 99.85 29.07L4.05 29.07C2.52 29.07 1.27 30.33 1.27 31.85L1.27 77.62C1.27 79.15 2.52 80.4 4.05 80.4L11.88 80.4C11.88 74.04 17.04 68.88 23.4 68.88C29.76 68.88 34.92 74.04 34.92 80.4L78.53 80.4C78.53 74.04 83.69 68.88 90.05 68.88C96.41 68.88 101.56 74.04 101.56 80.4L112.07 80.4C113.6 80.4 114.85 79.15 114.85 77.62L114.85 65.37C114.85 61.18 114.1 57.02 112.63 53.1L107.04 34.05Z" stroke="#93CE20" stroke-opacity="1.000000" stroke-width="3.000000" stroke-linejoin="round"/>
			<path id="path1828" d="M1.27 31.85L1.27 36L107.61 36L107.04 34.05C105.91 31.06 103.05 29.07 99.85 29.07L4.05 29.07C2.52 29.07 1.27 30.33 1.27 31.85Z" stroke="#93CE20" stroke-opacity="1.000000" stroke-width="3.000000" stroke-linejoin="round"/>
			<path id="path1832" d="M88.27 56.29C88.72 56.29 89.17 56.35 89.6 56.47L89.6 36L82.88 36L82.88 56.29L88.27 56.29Z" stroke="#93CE20" stroke-opacity="1.000000" stroke-width="3.000000" stroke-linejoin="round"/>
			<path id="path1834" d="M44.85 56.29L44.85 36L38.13 36L38.13 56.29L44.85 56.29Z" stroke="#93CE20" stroke-opacity="1.000000" stroke-width="3.000000" stroke-linejoin="round"/>
			<path id="path1836" d="M22.47 56.29L22.47 36L15.76 36L15.76 56.29L22.47 56.29Z" stroke="#93CE20" stroke-opacity="1.000000" stroke-width="3.000000" stroke-linejoin="round"/>
			<path id="path1840" d="M108.81 40.07L116.01 40.07L118.72 " stroke="#93CE20" stroke-opacity="1.000000" stroke-width="3.000000" stroke-linejoin="round" stroke-linecap="round"/>
			<path id="path1844" d="M60.09 63.14L98.57 63.14L91.43 57.4C90.54 56.68 89.42 56.29 88.27 56.29L1.27 56.29L1.27 63.14L51.82 " stroke="#93CE20" stroke-opacity="1.000000" stroke-width="3.000000" stroke-linejoin="round" stroke-linecap="round"/>
			<path id="path1848" d="M67.22 42.1L67.22 36L60.51 36L60.51 56.29L67.22 56.29L67.22 " stroke="#93CE20" stroke-opacity="1.000000" stroke-width="3.000000" stroke-linejoin="round" stroke-linecap="round"/>
		</g>
	</g>
</svg>
