<svg width="121.000000" height="90.000000" viewBox="0 0 121 90" fill="none" xmlns="http://www.w3.org/2000/svg" xmlns:xlink="http://www.w3.org/1999/xlink">
	<desc>
			Created with Pixso.
	</desc>
	<defs/>
	<path id="path3474" d="M7.66 74.98L4.03 74.98C2.5 74.98 1.27 73.75 1.27 72.23L1.27 65.01C1.27 63.49 2.5 62.25 4.03 62.25L83.39 " stroke="#93CE20" stroke-opacity="1.000000" stroke-width="3.000000" stroke-linejoin="round" stroke-linecap="round"/>
	<path id="path3478" d="M17.02 53.06L12.36 62.25L48.19 62.25L43.54 53.06L17.02 53.06Z" stroke="#93CE20" stroke-opacity="1.000000" stroke-width="3.000000" stroke-linejoin="round"/>
	<path id="path3482" d="M58.18 19.99L58.18 " stroke="#93CE20" stroke-opacity="1.000000" stroke-width="3.000000" stroke-linejoin="round" stroke-linecap="round"/>
	<path id="path3486" d="M116.77 67.82L116.77 43.88L93 40.11L90.49 " stroke="#93CE20" stroke-opacity="1.000000" stroke-width="3.000000" stroke-linejoin="round" stroke-linecap="round"/>
	<path id="path3490" d="M80.81 19.99L100.3 19.99C99.76 16.29 96.58 13.54 92.84 13.54L78.77 13.54L78.35 12.21C77.57 9.73 75.27 8.04 72.67 8.04L58.18 8.04L58.18 13.54L58.18 19.99L68.23 " stroke="#93CE20" stroke-opacity="1.000000" stroke-width="3.000000" stroke-linejoin="round" stroke-linecap="round"/>
	<path id="path3494" d="M94.25 56.55C95.16 56.41 96.09 56.34 97.04 56.34C104.8 56.34 111.48 61.08 114.33 " stroke="#93CE20" stroke-opacity="1.000000" stroke-width="3.000000" stroke-linejoin="round" stroke-linecap="round"/>
	<path id="path3498" d="M78.29 74.98C78.33 68.14 82.05 62.16 87.56 " stroke="#93CE20" stroke-opacity="1.000000" stroke-width="3.000000" stroke-linejoin="round" stroke-linecap="round"/>
	<path id="path3502" d="M45.4 21.2L45.4 5.04L51.21 1.04L51.21 " stroke="#93CE20" stroke-opacity="1.000000" stroke-width="3.000000" stroke-linejoin="round" stroke-linecap="round"/>
	<path id="path3506" d="M43.16 33.64L43.16 44.85C43.16 46.56 44.55 47.95 46.27 47.95L50.34 47.95C52.06 47.95 53.45 46.56 53.45 44.85L53.45 24.18C53.45 22.47 52.06 21.08 50.34 21.08L46.27 21.08C44.55 21.08 43.16 22.47 43.16 24.18L43.16 " stroke="#93CE20" stroke-opacity="1.000000" stroke-width="3.000000" stroke-linejoin="round" stroke-linecap="round"/>
	<path id="path3510" d="M107.63 67.82L110.56 67.82L116.77 67.82C117.85 67.82 118.72 68.69 118.72 69.77L118.72 78.76C118.72 79.83 117.85 80.71 116.77 80.71L108.61 " stroke="#93CE20" stroke-opacity="1.000000" stroke-width="3.000000" stroke-linejoin="round" stroke-linecap="round"/>
	<path id="path3514" d="M20.51 62.25C13.41 62.25 7.66 68 7.66 75.1C7.66 82.2 13.41 87.95 20.51 87.95C27.6 87.95 33.35 82.2 33.35 75.1C33.35 68 27.6 62.25 20.51 62.25Z" stroke="#93CE20" stroke-opacity="1.000000" stroke-width="3.000000" stroke-linejoin="round"/>
	<path id="path3518" d="M20.51 69.04C17.16 69.04 14.44 71.75 14.44 75.1C14.44 78.45 17.16 81.16 20.51 81.16C23.85 81.16 26.57 78.45 26.57 75.1C26.57 71.75 23.85 69.04 20.51 69.04Z" stroke="#93CE20" stroke-opacity="1.000000" stroke-width="3.000000" stroke-linejoin="round"/>
	<path id="path3522" d="M46.2 62.25C39.11 62.25 33.35 68 33.35 75.1C33.35 82.2 39.11 87.95 46.2 87.95C53.3 87.95 59.05 82.2 59.05 75.1C59.05 68 53.3 62.25 46.2 62.25Z" stroke="#93CE20" stroke-opacity="1.000000" stroke-width="3.000000" stroke-linejoin="round"/>
	<path id="path3526" d="M46.2 69.04C42.85 69.04 40.14 71.75 40.14 75.1C40.14 78.45 42.85 81.16 46.2 81.16C49.55 81.16 52.26 78.45 52.26 75.1C52.26 71.75 49.55 69.04 46.2 69.04Z" stroke="#93CE20" stroke-opacity="1.000000" stroke-width="3.000000" stroke-linejoin="round"/>
	<path id="path3530" d="M97.04 62.25C89.95 62.25 84.19 68 84.19 75.1C84.19 82.2 89.95 87.95 97.04 87.95C104.14 87.95 109.89 82.2 109.89 75.1C109.89 68 104.14 62.25 97.04 62.25Z" stroke="#93CE20" stroke-opacity="1.000000" stroke-width="3.000000" stroke-linejoin="round"/>
	<path id="path3534" d="M97.04 69.04C93.69 69.04 90.98 71.75 90.98 75.1C90.98 78.45 93.69 81.16 97.04 81.16C100.39 81.16 103.1 78.45 103.1 75.1C103.1 71.75 100.39 69.04 97.04 69.04Z" stroke="#93CE20" stroke-opacity="1.000000" stroke-width="3.000000" stroke-linejoin="round"/>
	<path id="path3538" d="M110.21 42.84L110.21 " stroke="#93CE20" stroke-opacity="1.000000" stroke-width="3.000000" stroke-linejoin="round" stroke-linecap="round"/>
	<path id="path3542" d="M86.16 39.56L84.74 25.41L64.93 25.41L64.93 39.56L86.16 39.56Z" stroke="#93CE20" stroke-opacity="1.000000" stroke-width="3.000000" stroke-linejoin="round"/>
	<path id="path3546" d="M70.59 25.41L70.59 " stroke="#93CE20" stroke-opacity="1.000000" stroke-width="3.000000" stroke-linejoin="round" stroke-linecap="round"/>
	<path id="path3550" d="M99.09 51.71C99.09 54.87 101.65 57.42 104.81 57.42L104.81 46C101.65 46 99.09 48.55 99.09 51.71Z" stroke="#93CE20" stroke-opacity="1.000000" stroke-width="3.000000" stroke-linejoin="round"/>
	<path id="path3554" d="M59.05 74.98L84.19 " stroke="#93CE20" stroke-opacity="1.000000" stroke-width="3.000000" stroke-linejoin="round" stroke-linecap="round"/>
	<path id="path3558" d="M53.45 28.32L58.18 " stroke="#93CE20" stroke-opacity="1.000000" stroke-width="3.000000" stroke-linejoin="round" stroke-linecap="round"/>
	<path id="path3562" d="M53.45 41.21L58.18 " stroke="#93CE20" stroke-opacity="1.000000" stroke-width="3.000000" stroke-linejoin="round" stroke-linecap="round"/>
	<path id="path3566" d="M64.93 45.21L64.93 " stroke="#93CE20" stroke-opacity="1.000000" stroke-width="3.000000" stroke-linejoin="round" stroke-linecap="round"/>
</svg>
