<svg width="121.000000" height="121.000000" viewBox="0 0 121 121" fill="none" xmlns="http://www.w3.org/2000/svg" xmlns:xlink="http://www.w3.org/1999/xlink">
	<desc>
			Created with Pixso.
	</desc>
	<defs>
		<clipPath id="clip1_1133">
			<rect id="icon.svg - 2024-03-20T233708.058 1" width="121.000000" height="121.000000" transform="translate(-0.500000 0.000000)" fill="white" fill-opacity="0"/>
		</clipPath>
	</defs>
	<rect id="icon.svg - 2024-03-20T233708.058 1" width="121.000000" height="121.000000" transform="translate(-0.500000 0.000000)" fill="#FFFFFF" fill-opacity="0"/>
	<g clip-path="url(#clip1_1133)">
		<path id="_233327064" d="M34.31 65.97L42.41 65.97L42.41 41.42C42.41 40.9 42.83 40.48 43.35 40.48L70 40.48C70.51 40.48 70.93 40.9 70.93 41.42L70.93 48.96L85.2 36.43L70.93 23.9L70.93 31.45C70.93 31.96 70.51 32.38 70 32.38L34.31 32.38L34.31 65.97ZM43.35 67.84L33.37 67.84C32.86 67.84 32.44 67.42 32.44 66.9L32.44 31.45C32.44 30.93 32.86 30.51 33.37 30.51L69.06 30.51L69.06 21.83C69.06 21.46 69.27 21.13 69.61 20.98C69.94 20.83 70.34 20.89 70.61 21.13L87.24 35.73C87.44 35.91 87.55 36.16 87.55 36.43C87.55 36.7 87.44 36.96 87.24 37.14L70.61 51.74C70.34 51.98 69.94 52.04 69.61 51.89C69.27 51.73 69.06 51.4 69.06 51.03L69.06 42.36L44.28 42.36L44.28 66.9C44.28 67.42 43.86 67.84 43.35 67.84Z" fill="#93CE20" fill-opacity="1.000000" fill-rule="evenodd"/>
		<path id="_233327064" d="M42.41 65.97L42.41 41.42C42.41 40.9 42.83 40.48 43.35 40.48L70 40.48C70.51 40.48 70.93 40.9 70.93 41.42L70.93 48.96L85.2 36.43L70.93 23.9L70.93 31.45C70.93 31.96 70.51 32.38 70 32.38L34.31 32.38L34.31 65.97L42.41 65.97ZM33.37 67.84C32.86 67.84 32.44 67.42 32.44 66.9L32.44 31.45C32.44 30.93 32.86 30.51 33.37 30.51L69.06 30.51L69.06 21.83C69.06 21.46 69.27 21.13 69.61 20.98C69.94 20.83 70.34 20.89 70.61 21.13L87.24 35.73C87.44 35.91 87.55 36.16 87.55 36.43C87.55 36.7 87.44 36.96 87.24 37.14L70.61 51.74C70.34 51.98 69.94 52.04 69.61 51.89C69.27 51.73 69.06 51.4 69.06 51.03L69.06 42.36L44.28 42.36L44.28 66.9C44.28 67.42 43.86 67.84 43.35 67.84L33.37 67.84Z" stroke="#93CE20" stroke-opacity="1.000000" stroke-width="1.000000"/>
		<path id="_233327448" d="M34.79 84.56L49.06 97.09L49.06 89.54C49.06 89.02 49.48 88.6 50 88.6L85.68 88.6L85.68 55.02L77.58 55.02L77.58 79.57C77.58 80.09 77.16 80.51 76.64 80.51L50 80.51C49.48 80.51 49.06 80.09 49.06 79.57L49.06 72.03L34.79 84.56ZM50 100.09C49.77 100.09 49.55 100.01 49.38 99.86L32.76 85.26C32.55 85.08 32.44 84.83 32.44 84.56C32.44 84.29 32.55 84.03 32.76 83.85L49.38 69.25C49.65 69.01 50.05 68.95 50.38 69.1C50.72 69.26 50.93 69.59 50.93 69.96L50.93 78.63L75.71 78.63L75.71 54.09C75.71 53.57 76.13 53.15 76.64 53.15L86.62 53.15C87.14 53.15 87.55 53.57 87.55 54.09L87.55 89.54C87.55 90.06 87.14 90.48 86.62 90.48L50.93 90.48L50.93 99.16C50.93 99.52 50.72 99.86 50.38 100.01C50.26 100.07 50.13 100.09 50 100.09Z" fill="#93CE20" fill-opacity="1.000000" fill-rule="evenodd"/>
		<path id="_233327448" d="M49.06 97.09L49.06 89.54C49.06 89.02 49.48 88.6 50 88.6L85.68 88.6L85.68 55.02L77.58 55.02L77.58 79.57C77.58 80.09 77.16 80.51 76.64 80.51L50 80.51C49.48 80.51 49.06 80.09 49.06 79.57L49.06 72.03L34.79 84.56L49.06 97.09ZM49.38 99.86L32.76 85.26C32.55 85.08 32.44 84.83 32.44 84.56C32.44 84.29 32.55 84.03 32.76 83.85L49.38 69.25C49.65 69.01 50.05 68.95 50.38 69.1C50.72 69.26 50.93 69.59 50.93 69.96L50.93 78.63L75.71 78.63L75.71 54.09C75.71 53.57 76.13 53.15 76.64 53.15L86.62 53.15C87.14 53.15 87.55 53.57 87.55 54.09L87.55 89.54C87.55 90.06 87.14 90.48 86.62 90.48L50.93 90.48L50.93 99.16C50.93 99.52 50.72 99.86 50.38 100.01C50.26 100.07 50.13 100.09 50 100.09C49.77 100.09 49.55 100.01 49.38 99.86Z" stroke="#93CE20" stroke-opacity="1.000000" stroke-width="1.000000"/>
		<path id="_233327232" d="M60 8.96C31.58 8.96 8.46 32.08 8.46 60.5C8.46 88.91 31.58 112.03 60 112.03C88.41 112.03 111.53 88.91 111.53 60.5C111.53 32.08 88.41 8.96 60 8.96ZM60 113.91C45.73 113.91 32.32 108.35 22.23 98.26C12.14 88.17 6.58 74.76 6.58 60.49C6.58 46.23 12.14 32.81 22.23 22.73C32.32 12.64 45.73 7.08 60 7.08C74.26 7.08 87.68 12.64 97.76 22.73C107.85 32.81 113.41 46.23 113.41 60.49C113.41 74.76 107.85 88.17 97.76 98.26C87.68 108.35 74.26 113.91 60 113.91Z" fill="#93CE20" fill-opacity="1.000000" fill-rule="evenodd"/>
		<path id="_233327232" d="M8.46 60.5C8.46 88.91 31.58 112.03 60 112.03C88.41 112.03 111.53 88.91 111.53 60.5C111.53 32.08 88.41 8.96 60 8.96C31.58 8.96 8.46 32.08 8.46 60.5ZM22.23 98.26C12.14 88.17 6.58 74.76 6.58 60.49C6.58 46.23 12.14 32.81 22.23 22.73C32.32 12.64 45.73 7.08 60 7.08C74.26 7.08 87.68 12.64 97.76 22.73C107.85 32.81 113.41 46.23 113.41 60.49C113.41 74.76 107.85 88.17 97.76 98.26C87.68 108.35 74.26 113.91 60 113.91C45.73 113.91 32.32 108.35 22.23 98.26Z" stroke="#93CE20" stroke-opacity="1.000000" stroke-width="1.000000"/>
		<path id="_233327352" d="M60 14.23C34.48 14.23 13.73 34.98 13.73 60.5C13.73 86.01 34.48 106.76 60 106.76C85.51 106.76 106.26 86.01 106.26 60.5C106.26 34.98 85.51 14.23 60 14.23ZM60 108.64C33.45 108.64 11.86 87.04 11.86 60.5C11.86 33.95 33.45 12.36 60 12.36C86.54 12.36 108.14 33.95 108.14 60.5C108.14 87.04 86.54 108.64 60 108.64Z" fill="#93CE20" fill-opacity="1.000000" fill-rule="evenodd"/>
		<path id="_233327352" d="M13.73 60.5C13.73 86.01 34.48 106.76 60 106.76C85.51 106.76 106.26 86.01 106.26 60.5C106.26 34.98 85.51 14.23 60 14.23C34.48 14.23 13.73 34.98 13.73 60.5ZM11.86 60.5C11.86 33.95 33.45 12.36 60 12.36C86.54 12.36 108.14 33.95 108.14 60.5C108.14 87.04 86.54 108.64 60 108.64C33.45 108.64 11.86 87.04 11.86 60.5Z" stroke="#93CE20" stroke-opacity="1.000000" stroke-width="1.000000"/>
	</g>
</svg>
