<svg width="249.000000" height="58.000000" viewBox="0 0 249 58" fill="none" xmlns="http://www.w3.org/2000/svg" xmlns:xlink="http://www.w3.org/1999/xlink">
	<desc>
			Created with Pixso.
	</desc>
	<defs/>
	<path id="Online" d="M193.97 6.03C194.62 6.63 195.46 6.93 196.49 6.93C197.55 6.93 198.39 6.63 199.01 6.03C199.66 5.4 199.98 4.62 199.98 3.69C199.98 2.8 199.66 2.08 199.01 1.53C198.36 0.95 197.52 0.66 196.49 0.66C195.46 0.66 194.62 0.96 193.97 1.56C193.32 2.16 193 2.91 193 3.79C193 4.68 193.32 5.43 193.97 6.03ZM182.85 29L182.85 2.28L188.47 2.28L188.47 29L182.85 29ZM140.22 29.43Q137.24 29.43 134.68 28.46C133 27.81 131.53 26.9 130.29 25.72Q129.6 25.06 129.03 24.31Q128.06 23.07 127.41 21.58Q126.4 19.2 126.4 16.4Q126.4 13.59 127.41 11.21Q127.99 9.89 128.82 8.76L128.83 8.76L128.83 8.76Q129.49 7.85 130.32 7.07Q130.65 6.76 131 6.48L131 6.48L131 6.48L131 6.48Q132.64 5.14 134.72 4.33Q137.24 3.36 140.19 3.36Q143.17 3.36 145.66 4.33Q147.85 5.18 149.53 6.63L149.53 6.63L149.53 6.63Q149.54 6.64 149.54 6.64Q149.78 6.85 150.02 7.07C151.26 8.25 152.24 9.63 152.93 11.21Q153.98 13.55 153.98 16.4Q153.98 18.9 153.14 21.09L153.14 21.09Q153.04 21.35 152.93 21.62C152.24 23.2 151.26 24.58 150.02 25.76C148.79 26.91 147.34 27.81 145.66 28.46Q143.17 29.43 140.22 29.43ZM140.19 24.46Q141.88 24.46 143.28 23.88Q144.14 23.54 144.87 23.02L144.87 23.02L144.87 23.02Q145.37 22.66 145.8 22.23C146.52 21.51 147.08 20.65 147.46 19.67C147.87 18.69 148.07 17.6 148.07 16.4C148.07 15.2 147.87 14.1 147.46 13.12Q147.05 12.06 146.38 11.21L146.38 11.21Q146.11 10.87 145.8 10.56Q145.47 10.22 145.1 9.93L145.1 9.93L145.1 9.93L145.1 9.93Q144.3 9.3 143.32 8.91Q141.88 8.33 140.19 8.33Q138.5 8.33 137.06 8.91Q136.41 9.17 135.84 9.54L135.84 9.54L135.84 9.54Q135.16 9.98 134.57 10.56Q134.35 10.79 134.14 11.03Q133.36 11.95 132.88 13.12Q132.3 14.6 132.3 16.4Q132.3 18.16 132.88 19.67C133.29 20.65 133.84 21.51 134.53 22.23Q134.97 22.66 135.47 23.02Q136.2 23.54 137.06 23.88Q138.5 24.46 140.19 24.46ZM173.84 10.28C172.64 9.65 171.27 9.34 169.73 9.34Q167.32 9.34 165.42 10.32L165.42 10.32Q165.36 10.35 165.31 10.38Q164.33 10.9 163.59 11.65L163.59 11.65Q163.45 11.79 163.33 11.93L163.33 9.63L157.96 9.63L157.96 29L163.58 29L163.58 19.42C163.58 18.22 163.77 17.24 164.15 16.47C164.56 15.7 165.11 15.14 165.81 14.78Q165.97 14.69 166.14 14.61L166.14 14.61L166.14 14.61L166.14 14.61Q167.09 14.2 168.22 14.2C169.47 14.2 170.43 14.57 171.1 15.31C171.8 16.06 172.15 17.21 172.15 18.77L172.15 29L177.76 29L177.76 17.91C177.76 15.94 177.41 14.33 176.72 13.08C176.02 11.81 175.06 10.88 173.84 10.28ZM216.28 9.34C217.82 9.34 219.19 9.65 220.39 10.28Q221 10.57 221.52 10.99L221.52 10.99Q222.57 11.81 223.27 13.08Q224.31 14.96 224.31 17.91L224.31 29L218.69 29L218.69 18.77Q218.69 16.43 217.65 15.31C216.98 14.57 216.02 14.2 214.77 14.2C213.88 14.2 213.08 14.39 212.36 14.78C211.66 15.14 211.11 15.7 210.7 16.47C210.32 17.24 210.13 18.22 210.13 19.42L210.13 29L204.51 29L204.51 9.63L209.87 9.63L209.87 11.93C210.43 11.31 211.09 10.79 211.85 10.38C213.15 9.69 214.63 9.34 216.28 9.34ZM233.32 27.99Q235.84 29.28 239.15 29.28C240.9 29.28 242.45 29.02 243.8 28.49C245.14 27.94 246.26 27.16 247.14 26.15L244.16 22.91Q243.32 23.71 242.33 24.17Q242.16 24.25 242 24.31C241.23 24.63 240.33 24.78 239.3 24.78C238.14 24.78 237.14 24.58 236.27 24.17C235.43 23.74 234.77 23.13 234.29 22.34C234.04 21.89 233.86 21.41 233.75 20.9L248.4 20.9C248.43 20.65 248.45 20.4 248.48 20.14C248.5 19.85 248.51 19.6 248.51 19.38Q248.51 16.25 247.18 14.02C246.29 12.51 245.08 11.36 243.54 10.56C242.03 9.75 240.33 9.34 238.43 9.34Q235.84 9.34 233.71 10.34Q233.42 10.48 233.14 10.64Q231.94 11.28 231 12.19Q230.1 13.06 229.43 14.16Q229.29 14.41 229.15 14.66Q228.1 16.72 228.1 19.31C228.1 21.23 228.56 22.95 229.47 24.46C230.38 25.95 231.66 27.12 233.32 27.99ZM233.69 17.62C233.78 17.02 233.96 16.48 234.22 16C234.63 15.23 235.19 14.64 235.91 14.24C236.66 13.8 237.51 13.59 238.47 13.59C239.43 13.59 240.27 13.8 240.99 14.24C241.71 14.64 242.27 15.22 242.68 15.96C242.95 16.46 243.13 17.01 243.22 17.62L233.69 17.62ZM193.68 9.63L193.68 29L199.3 29L199.3 9.63L193.68 9.63Z" fill="#FFFFFF" fill-opacity="1.000000" fill-rule="evenodd"/>
	<path id="Services" d="M191.5 40.53C191.19 40.53 190.94 40.43 190.73 40.22Q190.56 40.06 190.48 39.86Q190.41 39.68 190.41 39.46Q190.41 39.23 190.5 39.03Q190.58 38.86 190.73 38.73C190.94 38.52 191.19 38.41 191.5 38.41C191.81 38.41 192.07 38.51 192.28 38.71C192.49 38.9 192.59 39.15 192.59 39.44C192.59 39.75 192.49 40.01 192.28 40.22C192.08 40.43 191.82 40.53 191.5 40.53ZM133.44 54.12Q132.28 54.12 131.19 53.86Q130.73 53.75 130.29 53.6C129.3 53.23 128.53 52.77 127.98 52.21L128.59 51.01Q129.37 51.77 130.67 52.29Q131.1 52.46 131.54 52.57L131.54 52.57Q132.46 52.8 133.44 52.8C134.37 52.8 135.12 52.69 135.69 52.46Q136.57 52.11 136.97 51.52Q137.19 51.2 137.3 50.86Q137.39 50.55 137.39 50.22C137.39 49.64 137.22 49.18 136.89 48.83C136.56 48.48 136.14 48.21 135.61 48.01C135.07 47.8 134.49 47.62 133.84 47.46C133.2 47.31 132.55 47.15 131.91 46.98C131.27 46.8 130.67 46.56 130.12 46.27Q129.56 45.95 129.14 45.5Q128.97 45.32 128.82 45.11Q128.34 44.38 128.34 43.2Q128.34 42.57 128.53 42L128.53 42Q128.67 41.59 128.91 41.21Q129.49 40.28 130.69 39.74Q131.89 39.17 133.76 39.17Q134.01 39.17 134.26 39.18L134.26 39.18L134.26 39.18Q135.24 39.24 136.21 39.53Q137.43 39.86 138.31 40.47L137.79 41.71Q137.11 41.26 136.37 40.98L136.37 40.98L136.37 40.98Q136.07 40.87 135.77 40.79Q134.72 40.49 133.74 40.49Q132.41 40.49 131.55 40.85Q130.69 41.21 130.27 41.81Q130.14 42 130.06 42.21L130.06 42.21Q129.87 42.65 129.87 43.16Q129.87 43.88 130.21 44.36Q130.28 44.46 130.36 44.54Q130.86 45.07 131.66 45.36C132.2 45.56 132.8 45.74 133.44 45.89Q134.41 46.12 135.35 46.39Q136.32 46.67 137.12 47.11C137.66 47.39 138.1 47.77 138.42 48.24Q138.92 48.96 138.92 50.11C138.92 50.82 138.73 51.49 138.34 52.11Q137.75 53.01 136.53 53.58Q135.33 54.12 133.44 54.12ZM150.67 54.1C149.52 54.1 148.51 53.86 147.64 53.39C146.78 52.9 146.1 52.23 145.61 51.39Q145.52 51.23 145.44 51.07Q144.87 49.91 144.87 48.47C144.87 47.38 145.1 46.41 145.56 45.57Q145.99 44.83 146.59 44.27Q147 43.89 147.5 43.6Q147.84 43.39 148.22 43.25L148.22 43.25Q149.17 42.87 150.27 42.87C151.3 42.87 152.22 43.1 153.02 43.58C153.83 44.04 154.47 44.7 154.93 45.55Q155.62 46.81 155.62 48.47C155.62 48.54 155.62 48.62 155.6 48.7L155.6 48.93L146.33 48.93C146.38 49.61 146.56 50.22 146.87 50.76Q147.1 51.15 147.41 51.48Q147.84 51.93 148.42 52.25C149.09 52.6 149.86 52.78 150.71 52.78C151.38 52.78 152 52.66 152.58 52.42Q152.95 52.27 153.28 52.05Q153.73 51.75 154.09 51.33L154.93 52.29C154.44 52.88 153.82 53.33 153.08 53.64Q151.99 54.1 150.67 54.1ZM162.65 54L162.65 42.97L164.08 42.97L164.08 45.1C164.39 44.43 164.86 43.91 165.48 43.54Q166.58 42.87 168.19 42.87L168.19 44.31L168.02 44.31Q167.94 44.29 167.86 44.29Q166.52 44.29 165.63 44.92Q165.36 45.11 165.13 45.36C164.47 46.06 164.14 47.06 164.14 48.37L164.14 54L162.65 54ZM204.95 54.1C203.86 54.1 202.88 53.86 202.01 53.39C201.16 52.9 200.49 52.23 200 51.39C199.51 50.54 199.26 49.56 199.26 48.47C199.26 47.37 199.51 46.39 200 45.55C200.49 44.71 201.16 44.05 202.01 43.58C202.88 43.1 203.86 42.87 204.95 42.87Q206.36 42.87 207.5 43.41C208.25 43.78 208.85 44.32 209.28 45.05L208.17 45.8C207.79 45.25 207.32 44.83 206.76 44.57C206.2 44.3 205.59 44.17 204.93 44.17C204.15 44.17 203.44 44.35 202.81 44.71C202.18 45.06 201.69 45.56 201.32 46.2C200.96 46.85 200.78 47.6 200.78 48.47C200.78 49.34 200.96 50.1 201.32 50.74C201.69 51.38 202.18 51.89 202.81 52.25C203.44 52.6 204.15 52.78 204.93 52.78C205.59 52.78 206.2 52.64 206.76 52.38C207.32 52.11 207.79 51.71 208.17 51.16L209.28 51.92C208.85 52.63 208.25 53.18 207.5 53.55Q206.36 54.1 204.95 54.1ZM220.7 54.1C219.55 54.1 218.54 53.86 217.67 53.39C216.81 52.9 216.13 52.23 215.64 51.39C215.15 50.54 214.9 49.56 214.9 48.47C214.9 47.38 215.13 46.41 215.59 45.57C216.07 44.73 216.71 44.08 217.53 43.6C218.35 43.11 219.28 42.87 220.3 42.87Q221.65 42.87 222.73 43.41Q222.89 43.49 223.05 43.58C223.86 44.04 224.5 44.7 224.96 45.55C225.42 46.39 225.65 47.37 225.65 48.47C225.65 48.54 225.65 48.62 225.63 48.7L225.63 48.93L216.36 48.93Q216.44 49.91 216.86 50.69Q216.88 50.73 216.9 50.76C217.27 51.39 217.79 51.89 218.45 52.25C219.12 52.6 219.89 52.78 220.74 52.78C221.41 52.78 222.03 52.66 222.61 52.42C223.2 52.18 223.7 51.82 224.12 51.33L224.96 52.29C224.47 52.88 223.85 53.33 223.11 53.64C222.38 53.95 221.58 54.1 220.7 54.1ZM235.64 54.1C234.73 54.1 233.87 53.97 233.06 53.72C232.24 53.46 231.61 53.13 231.15 52.74L231.82 51.56C232.27 51.9 232.84 52.19 233.54 52.44C234.24 52.68 234.97 52.8 235.74 52.8C236.79 52.8 237.55 52.64 238.01 52.31C238.47 51.98 238.71 51.54 238.71 50.99C238.71 50.59 238.57 50.27 238.31 50.05C238.05 49.81 237.72 49.63 237.3 49.52C236.88 49.4 236.41 49.29 235.89 49.21C235.37 49.12 234.86 49.03 234.34 48.91C233.83 48.8 233.37 48.64 232.95 48.43C232.53 48.21 232.19 47.9 231.92 47.53C231.67 47.15 231.54 46.65 231.54 46.02Q231.54 45.48 231.72 45.02Q231.84 44.69 232.05 44.4C232.38 43.92 232.87 43.55 233.52 43.28C234.18 43.01 234.97 42.87 235.91 42.87C236.63 42.87 237.34 42.96 238.05 43.16C238.77 43.34 239.36 43.59 239.82 43.89L239.17 45.09C238.68 44.76 238.15 44.52 237.59 44.38Q236.75 44.15 235.91 44.15Q234.42 44.15 233.71 44.67C233.25 45.01 233.01 45.44 233.01 45.97C233.01 46.39 233.14 46.72 233.39 46.96C233.66 47.2 234 47.39 234.42 47.53C234.86 47.65 235.32 47.76 235.83 47.84C236.35 47.93 236.86 48.03 237.36 48.16C237.88 48.27 238.35 48.43 238.77 48.64C239.2 48.84 239.55 49.12 239.8 49.5C240.06 49.87 240.2 50.35 240.2 50.95Q240.2 51.6 239.95 52.14Q239.83 52.4 239.65 52.63C239.3 53.09 238.78 53.46 238.1 53.72Q237.09 54.1 235.64 54.1ZM178.21 54L173.32 42.97L174.87 42.97L179 52.37L183.19 42.97L184.66 42.97L179.74 54L178.21 54ZM190.75 54L190.75 42.97L192.24 42.97L192.24 54L190.75 54ZM146.34 47.82L154.2 47.82C154.14 47.2 153.98 46.64 153.69 46.14C153.36 45.51 152.89 45.02 152.31 44.67Q152.22 44.62 152.13 44.57L152.13 44.57Q151.31 44.15 150.27 44.15C149.51 44.15 148.83 44.32 148.23 44.67Q147.86 44.89 147.55 45.18Q147.12 45.59 146.82 46.14Q146.42 46.89 146.34 47.82ZM216.37 47.82L224.23 47.82C224.17 47.2 224.01 46.64 223.72 46.14C223.39 45.51 222.92 45.02 222.34 44.67C221.75 44.32 221.07 44.15 220.3 44.15C219.54 44.15 218.86 44.32 218.26 44.67C217.66 45.02 217.19 45.51 216.85 46.14Q216.45 46.89 216.37 47.82Z" fill="#FFFFFF" fill-opacity="1.000000" fill-rule="evenodd"/>
	<rect id="Rectangle 1" width="111.000000" height="58.000000" fill="#93CE20" fill-opacity="1.000000"/>
	<path id="TSC" d="M10 19L10 11L39.27 11L39.27 19L29.07 19L29.07 46.18L20.2 46.18L20.2 19L10 19ZM42.94 43.13L42.94 38.18L58.81 38.18C59.18 38.18 59.37 37.99 59.37 37.62L59.37 34.15C59.37 33.67 59.16 33.4 58.75 33.33L49.32 31.4Q46.59 30.87 45.03 29.23Q42.94 27.04 42.94 22.88L42.94 19.97Q42.94 15.48 45.19 13.24Q47.43 11 51.92 11L63.24 11L67.22 14.06L67.22 19L52.38 19Q52.1 19 51.96 19.14Q51.82 19.28 51.82 19.56L51.82 22.83C51.82 23.27 52.02 23.54 52.43 23.64L61.87 25.48Q64.63 26.05 66.2 27.74Q68.24 29.95 68.24 34.05L68.24 37.21Q68.24 41.7 66 43.94Q63.75 46.18 59.26 46.18L46.92 46.18L42.94 43.13ZM74.15 19.97L74.15 37.21C74.15 43.19 77.14 46.18 83.12 46.18L96.33 46.18L100.31 43.13L100.31 38.18L83.58 38.18C83.21 38.18 83.02 37.99 83.02 37.62L83.02 19.56C83.02 19.19 83.21 19 83.58 19L100.31 19L100.31 14.06L96.33 11L83.12 11Q78.63 11 76.39 13.24Q74.15 15.48 74.15 19.97Z" fill="#FFFFFF" fill-opacity="1.000000" fill-rule="evenodd"/>
</svg>
